<?xml version="1.0" standalone="no"?><!DOCTYPE svg PUBLIC "-//W3C//DTD SVG 1.1//EN" "http://www.w3.org/Graphics/SVG/1.1/DTD/svg11.dtd"><svg t="1577797986860" class="icon" viewBox="0 0 1024 1024" version="1.1" xmlns="http://www.w3.org/2000/svg" p-id="1972" xmlns:xlink="http://www.w3.org/1999/xlink" width="200" height="200"><defs><style type="text/css"></style></defs><path d="M928 0c53.02 0 96 42.98 96 96v576c0 53.02-42.98 96-96 96H352c-53.02 0-96-42.98-96-96V96c0-53.02 42.98-96 96-96h576M352 832c-88.224 0-160-71.776-160-160V256H96c-53.02 0-96 42.98-96 96v576c0 53.02 42.98 96 96 96h576c53.02 0 96-42.98 96-96v-96H352z" fill="" p-id="1973"></path></svg>