<?xml version="1.0" standalone="no"?><!DOCTYPE svg PUBLIC "-//W3C//DTD SVG 1.1//EN" "http://www.w3.org/Graphics/SVG/1.1/DTD/svg11.dtd"><svg t="1561544503969" class="icon" viewBox="0 0 1024 1024" version="1.1" xmlns="http://www.w3.org/2000/svg" p-id="2167" xmlns:xlink="http://www.w3.org/1999/xlink" width="200" height="200"><defs><style type="text/css"></style></defs><path d="M917.333333 951.466667h-85.333333v-128h128v85.333333c0 21.333333-17.066667 42.666667-42.666667 42.666667z m-85.333333-298.666667h85.333333c25.6 0 42.666667 17.066667 42.666667 42.666667v85.333333h-128v-128z m-213.333333 298.666667h-426.666667c-46.933333 0-85.333333-38.4-85.333333-85.333334v-682.666666c0-46.933333 38.4-85.333333 85.333333-85.333334h682.666667c46.933333 0 85.333333 38.4 85.333333 85.333334v426.666666h-341.333333v341.333334z m-384-170.666667h298.666666v-42.666667h-298.666666v42.666667z m0-128h213.333333v-42.666667h-213.333333v42.666667z m0-256h213.333333v-42.666667h-213.333333v42.666667z m426.666666-170.666667h-426.666666v42.666667h426.666666v-42.666667z m0 298.666667v-42.666667h-426.666666v42.666667h426.666666z m42.666667 128h85.333333v128h-128v-85.333333c0-25.6 17.066667-42.666667 42.666667-42.666667z m85.333333 298.666667h-85.333333c-25.6 0-42.666667-17.066667-42.666667-42.666667v-85.333333h128v128z" p-id="2168"></path></svg>