<?xml version="1.0" standalone="no"?><!DOCTYPE svg PUBLIC "-//W3C//DTD SVG 1.1//EN" "http://www.w3.org/Graphics/SVG/1.1/DTD/svg11.dtd"><svg t="1562507195538" class="icon" viewBox="0 0 1024 1024" version="1.1" xmlns="http://www.w3.org/2000/svg" p-id="2451" xmlns:xlink="http://www.w3.org/1999/xlink" width="200" height="200"><defs><style type="text/css"></style></defs><path d="M512 0.96C230.208 0.96 0.96 230.208 0.96 512c0 281.792 229.248 511.04 511.04 511.04 281.792 0 511.04-229.248 511.04-511.04C1023.04 230.208 793.792 0.96 512 0.96zM463.36 195.84c0-26.752 21.888-48.64 48.64-48.64s48.64 21.888 48.64 48.64v267.52C560.64 490.176 538.752 512 512 512a48.832 48.832 0 0 1-48.64-48.64V195.84zM512 828.224a316.16 316.16 0 0 1-121.6-608.128v109.888a218.88 218.88 0 1 0 243.2 0V220.096A316.16 316.16 0 0 1 512 828.224z" p-id="2452"></path></svg>