<?xml version="1.0" standalone="no"?><!DOCTYPE svg PUBLIC "-//W3C//DTD SVG 1.1//EN" "http://www.w3.org/Graphics/SVG/1.1/DTD/svg11.dtd"><svg t="1578055018145" class="icon" viewBox="0 0 1024 1024" version="1.1" xmlns="http://www.w3.org/2000/svg" p-id="2053" xmlns:xlink="http://www.w3.org/1999/xlink" width="200" height="200"><defs><style type="text/css"></style></defs><path d="M866.46 0H157.54C70.89 0 0 70.89 0 157.54v708.92C0 953.11 70.89 1024 157.54 1024h708.92c86.65 0 157.54-70.89 157.54-157.54V157.54C1024 70.89 953.11 0 866.46 0zM280.31 640H233l-91.8-256h42.32l72.79 212.25h1.08L329.79 384h42.32z m329.41 0h-38L439.39 447.45H438V640h-39.13V384h39.45l130.89 190.4h1.42V384h39.09z m232.95-18.65q-29.59 23.7-71 23.7c-42 0-73.51-13.65-94.68-40.2-18.63-23-27.61-53.75-27.61-92.5 0-38 9.33-68.85 28.7-92.85 21.51-27.3 52.35-40.5 93.23-40.5 29.76 0 54.51 7.55 73.87 23.3 18.65 15.1 30.13 35.85 34.06 61.7h-38c-4.3-17.2-12.55-30.15-24.74-38.4s-27.25-12.15-45.9-12.15c-27.61 0-48.41 9.3-62.4 28.3-13.26 17.2-19.72 40.9-19.72 70.65 0 30.85 6.46 54.5 19.37 71.35q20.45 26.92 63.47 26.9c18.65 0 34.42-4.65 46.62-14 12.9-10 21.88-25.1 26.89-45.15h38c-5.74 29.7-19 53-40.16 69.85z" p-id="2054"></path></svg>
