<?xml version="1.0" standalone="no"?><!DOCTYPE svg PUBLIC "-//W3C//DTD SVG 1.1//EN" "http://www.w3.org/Graphics/SVG/1.1/DTD/svg11.dtd"><svg t="1577800105641" class="icon" viewBox="0 0 1024 1024" version="1.1" xmlns="http://www.w3.org/2000/svg" p-id="5101" xmlns:xlink="http://www.w3.org/1999/xlink" width="200" height="200"><defs><style type="text/css"></style></defs><path d="M0 9.03168l223.689387-3.413333 76.99456 707.9936h4.256426l82.080427-707.9936H597.333333l-190.754133 1014.203733h-203.912533L0 9.028267z m1021.15328 1012.005547h-282.289493c-127.494827 0-199.55712-94.644907-199.55712-210.169174S611.362133 600.746667 738.863787 600.746667h282.289493v420.29056zM1020.402347 672.426667h-284.32384C646.232747 672.426667 617.813333 726.408533 617.813333 807.768747c0 81.50016 28.422827 135.430827 118.265174 135.430826h282.289493l2.030933-270.772906zM600.746667 481.75104V199.533227C600.746667 72.0384 695.354027 0 810.91584 0c115.52768 0 210.066773 72.0384 210.066773 199.533227v282.2144H600.746667z m347.538773 2.116267V199.533227c0-89.84576-53.981867-118.316373-135.379627-118.316374-81.50016 0-135.417173 28.474027-135.417173 118.316374v282.2144l270.7968 2.116266z" p-id="5102"></path></svg>