<?xml version="1.0" standalone="no"?><!DOCTYPE svg PUBLIC "-//W3C//DTD SVG 1.1//EN" "http://www.w3.org/Graphics/SVG/1.1/DTD/svg11.dtd"><svg t="1578040970857" class="icon" viewBox="0 0 1024 1024" version="1.1" xmlns="http://www.w3.org/2000/svg" p-id="2111" xmlns:xlink="http://www.w3.org/1999/xlink" width="200" height="200"><defs><style type="text/css"></style></defs><path d="M874.432 521.6c-166.528 73.216-257.344 32.128-332.48-17.92l85.632-291.84c75.264 49.792 158.784 89.408 332.416 18.88L874.432 521.6z m-377.664-50.048a286.4 286.4 0 0 0-163.52-58.56 453.76 453.76 0 0 0-169.408 40.448L249.536 161.92c173.952-70.72 257.6-30.656 332.864 19.456L496.768 471.68v-0.128z m-14.464 52.864L395.52 817.472c-75.456-49.792-157.44-90.944-331.52-20.16l84.864-289.92 1.024-0.384c173.312-70.144 257.28-32.768 332.416 17.408z m45.44 28.288c75.328 49.792 152.448 86.336 329.6 26.816l-82.688 282.56c-173.888 70.656-257.344 30.656-332.608-19.456l85.696-289.92z" p-id="2112"></path></svg>